<svg version="1.0" xmlns="http://www.w3.org/2000/svg" viewBox="0 0 700 700">
  <path d="M0 87.5V175h220.3c241.2 0 225.2-.4 237.7 5.8 7.4 3.6 18.8 15.1 22.3 22.5 4.6 9.5 5.7 17 5.7 39.4V263l-154.2.2-154.3.3v173l154.3.3 154.2.2v19.3c0 21.9-1.4 30.1-7.1 40.8-4.2 7.9-15.8 18.8-24 22.7-12.7 5.9 2 5.6-235.6 5.9L0 526v173h228.3c147.5 0 233.1-.4 242.2-1 55.1-4.1 97.1-17.2 133.6-41.6 50.6-33.8 82.8-84.2 91.3-142.9 3.1-21.3 4.5-56.1 3-71.1l-.6-6-105.7.1H486.5l-.3-84.5c-.1-46.5 0-85.5.3-86.8l.5-2.2h213v-16.8c0-78.9-18.7-132.9-61.4-177.1C603.3 32.5 557.1 11 498 3.6 471.5.2 453.6 0 226.8 0H0v87.5z"/>
</svg>
